<svg width="760" height="320" fill="none" xmlns="http://www.w3.org/2000/svg"><path d="M460.148 307.427c-.632-2.278-2.275-4.303-4.424-5.062-2.275-.76-5.056.379-5.688 2.658-2.023-1.646-5.183-.38-6.826 1.772-2.655 3.417-.633 8.986-.127 9.239.506.379 1.77.379 1.77.379l19.846-.126s3.666-.253 5.309-.886c3.413-1.392 5.688-7.214 3.539-10.125-1.517-2.025-4.424-2.405-6.826-1.646-2.401.633-4.677 2.152-6.573 3.797z" fill="#6CDD6C"/><path d="M444.474 317.046c-.506 0-1.391-.126-1.896-.506-.759-.633-2.781-6.581 0-10.252 1.137-1.519 2.907-2.531 4.677-2.784.884-.127 1.643 0 2.401.38.38-.76 1.138-1.393 1.896-1.899 1.265-.633 2.908-.886 4.298-.38 2.023.633 3.666 2.278 4.551 4.557 1.896-1.519 4.045-2.785 6.067-3.418 2.402-.759 5.689-.506 7.459 1.899 1.011 1.392 1.264 3.417.632 5.569-.759 2.531-2.529 4.809-4.425 5.569-1.769.759-5.309 1.012-5.562 1.012l-19.846.127c0 .126-.126.126-.252.126zm3.286-12.15h-.379c-1.264.127-2.781 1.013-3.792 2.278-2.276 3.038-.632 7.974-.253 8.48.126.127.758.127 1.264.127l19.846-.127s3.539-.253 5.056-.886 3.034-2.531 3.666-4.683c.506-1.772.379-3.417-.379-4.43-1.391-1.898-4.172-2.025-6.068-1.392-2.022.633-4.298 2.025-6.32 3.797-.126.127-.379.253-.632.127-.253 0-.379-.253-.506-.38-.758-2.278-2.149-4.05-4.045-4.556-1.011-.38-2.275-.253-3.286.253-.885.38-1.391 1.139-1.644 1.898-.126.253-.252.38-.379.38-.253 0-.379 0-.632-.127-.253-.632-.885-.759-1.517-.759zm-8.469 1.772c-.506 1.139-.759 2.278-.632 3.544.126.633 1.011.633 1.011 0-.126-1.013 0-2.152.506-3.038.253-.506-.632-1.012-.885-.506zm-2.907.759c-.253 1.139-.38 2.279-.127 3.291.127.633 1.138.38 1.011-.253-.252-1.013-.126-1.899.127-2.785.126-.506-.885-.885-1.011-.253zm5.561-1.898c.632 0 .632-1.013 0-1.013s-.632 1.013 0 1.013z" fill="#50AA50"/><path d="M444.726 310.212v.886c0 .633 1.012.633 1.012 0v-.886c0-.633-1.012-.633-1.012 0zm16.56 1.519v.379c0 .633 1.011.633 1.011 0v-.379c0-.633-1.011-.633-1.011 0zm-1.77-1.14l.253.254c.506.506 1.138-.254.632-.633l-.253-.253c-.379-.507-1.138.126-.632.632z" fill="#50AA50"/><path d="M102.529 288.822H69.157c-.758 0-1.264-.633-1.264-1.265 0-.76.632-1.266 1.264-1.266h33.246c.758 0 1.264.633 1.264 1.266.126.759-.506 1.265-1.138 1.265zm235.484 21.643H292.76l.758-1.772c2.907-7.088 3.287-13.036 2.781-19.997l-.126-1.393 38.175-.126v1.266c0 4.429 1.264 14.555 3.033 20.25l.632 1.772zm-41.335-2.658h37.796c-1.517-5.569-2.402-13.416-2.655-18.099l-32.739.127c.253 6.201-.127 11.77-2.402 17.972z" fill="#226357"/><path d="M279.74 289.708c-34.383 0-62.193-.126-63.331-.633-2.907-1.012-6.826-5.189-6.826-7.973-.126-6.329-.379-14.808-.632-24.68-.884-29.743-2.275-70.624-.505-93.153.253-4.176 3.666-7.34 7.711-7.34h.126l197.954.253c4.171.126 7.584 3.417 7.584 7.72.127 6.582.38 13.29.632 20.124.885 28.604 1.897 58.22-1.264 86.191-.126 1.139-.126 2.278-.252 3.544-.253 5.822-.632 13.163-8.091 14.682-3.918.885-77.108 1.265-133.106 1.265zM216.03 158.08c-3.034 0-5.435 2.278-5.688 5.316-1.643 22.529-.379 63.156.505 92.899.253 9.872.633 18.478.633 24.68 0 1.772 3.033 5.189 5.435 6.075 4.171.886 190.37.253 195.173-.633 5.941-1.139 6.194-7.087 6.447-12.656 0-1.266.126-2.531.253-3.67 3.16-27.845 2.149-57.335 1.264-85.812-.253-6.834-.38-13.542-.632-20.124-.127-3.164-2.528-5.569-5.562-5.695l-197.828-.38c.127 0 0 0 0 0z" fill="#226357"/><path fill-rule="evenodd" clip-rule="evenodd" d="M408.675 163.143l-186.577-.253c-3.413 0-6.194 2.278-6.447 5.315-2.149 25.06.758 77.205 1.138 98.215 0 2.025 3.413 5.063 5.814 5.822 2.781.886 180.131.253 184.429-.506 7.837-1.392 6.447-9.366 7.079-14.429 3.665-28.856 1.39-60.245.632-88.469 0-3.29-2.781-5.695-6.068-5.695z" fill="#D5F2EA"/><path d="M354.194 317.679h-77.615c-3.033 0-4.677-2.405-4.677-4.809 0-2.405 1.644-4.81 4.677-4.81h77.615c3.033 0 4.677 2.405 4.677 4.81 0 2.404-1.644 4.809-4.677 4.809zm-77.615-7.594c-2.022 0-2.528 1.646-2.528 2.658 0 1.013.506 2.658 2.528 2.658h77.615c2.022 0 2.528-1.645 2.528-2.658 0-1.012-.506-2.658-2.528-2.658h-77.615z" fill="#226357"/><path d="M589.169 312.49h-26.798l10.239-33.793h6.194l10.365 33.793zm2.149 0h-31.223v3.923h31.223v-3.923z" fill="#7DDFC3"/><path d="M564.899 304.01l-2.528 8.48h26.798l-2.655-8.48h-21.615zm2.654-8.48h16.433l-2.654-8.353h-11.25l-2.529 8.353z" fill="#176B2B"/><path d="M627.884 316.16h5.942v-23.035h30.464v23.035h5.941v-23.035h6.32v-18.352h-5.056v-1.645h-8.596v1.645h-27.051v-1.645h-8.596v1.645h-5.562v18.352h6.194v23.035zm46.771-39.488l-3.666 14.555h-6.573l3.666-14.555h6.573zm-17.065 14.555h-6.573l3.666-14.555h6.573l-3.666 14.555zm-13.399 0h-6.573l3.666-14.555h6.573l-3.666 14.555zm-16.18-14.555h6.573l-3.666 14.555h-6.573l3.666-14.555zm-455.693-143.23l1.77-1.772c.379-.379.379-.886 0-1.265l-1.517-1.519a1.35 1.35 0 01-.253-1.519l1.265-3.038c.126-.506.632-.886 1.137-.886h2.149a.864.864 0 00.885-.886v-2.531a.865.865 0 00-.885-.886h-2.149c-.505 0-1.011-.379-1.137-.886l-1.265-3.037a1.35 1.35 0 01.253-1.519l1.517-1.519c.379-.38.379-.886 0-1.266l-1.77-1.771c-.379-.38-.884-.38-1.264 0l-1.643 1.392a1.344 1.344 0 01-1.517.253l-3.034-1.266c-.505-.126-.884-.633-.884-1.139v-2.151a.865.865 0 00-.885-.886h-2.528a.864.864 0 00-.885.886v2.151c0 .506-.379 1.013-.885 1.139l-3.034 1.266a1.344 1.344 0 01-1.517-.253l-1.517-1.519c-.379-.38-.884-.38-1.264 0l-1.769 1.772c-.38.38-.38.886 0 1.266l1.516 1.518c.38.38.506 1.013.253 1.519l-1.264 3.038c-.126.506-.632.886-1.137.886h-2.149a.864.864 0 00-.885.886v2.531c0 .506.379.886.885.886h2.149c.505 0 1.011.38 1.137.886l1.264 3.037c.253.507.127 1.14-.253 1.519l-1.516 1.519c-.38.38-.38.886 0 1.266l1.769 1.772c.38.379.885.379 1.264 0l1.517-1.519a1.343 1.343 0 011.517-.253l3.034 1.265c.506.127.885.633.885 1.139v2.152c0 .506.379.886.885.886h2.528c.505 0 .885-.38.885-.886v-2.152c0-.506.379-1.012.884-1.139l3.034-1.265a1.343 1.343 0 011.517.253l1.517 1.519c.379.506 1.011.506 1.39.126zm-10.491-4.936c-4.045 0-7.332-3.291-7.332-7.341 0-4.05 3.287-7.341 7.332-7.341s7.331 3.291 7.331 7.341c0 4.05-3.286 7.341-7.331 7.341zm27.43 11.897l-.505-1.519c-.127-.253-.38-.506-.759-.379l-1.264.379c-.253.127-.632 0-.885-.379l-1.264-1.646c-.253-.253-.253-.632-.126-.886l.632-1.139c.126-.253 0-.632-.253-.759l-1.391-.759c-.252-.127-.632 0-.758.253l-.632 1.139c-.126.253-.506.506-.885.379l-2.022-.253c-.253 0-.632-.253-.759-.506l-.379-1.266c-.127-.253-.379-.506-.759-.379l-1.516.506c-.253.127-.506.38-.38.759l.38 1.266c.126.253 0 .633-.38.886l-1.643 1.266c-.253.253-.632.253-.885.126l-1.137-.633c-.253-.126-.633 0-.759.254l-.758 1.392c-.127.253 0 .633.252.759l1.138.633c.253.127.506.506.379.886l-.252 2.025c0 .253-.253.633-.506.759l-1.264.38c-.253.127-.506.38-.379.759l.505 1.519c.127.253.379.506.759.38l1.264-.38c.253-.126.632 0 .885.253l1.264 1.646c.252.253.252.633.126.886l-.632 1.139c-.126.253 0 .633.253.759l1.39.76c.253.126.632 0 .759-.254l.632-1.139c.126-.253.505-.506.885-.379l2.022.253c.379 0 .632.253.759.506l.379 1.266c.126.253.379.506.758.379l1.517-.506c.253-.126.506-.38.379-.759l-.379-1.266c-.126-.253 0-.633.253-.886l1.643-1.266c.253-.253.632-.253.885-.126l1.138.633c.253.126.632 0 .758-.253l.759-1.393c.126-.253 0-.632-.253-.759l-1.138-.633c-.253-.126-.505-.506-.379-.886l.379-2.025c0-.253.253-.633.506-.759l1.264-.38c.379 0 .506-.38.379-.633zm-5.688 4.303c-1.138 2.279-3.919 3.038-6.194 1.899-2.275-1.139-3.034-3.924-1.896-6.202 1.137-2.278 3.918-3.037 6.194-1.898a4.467 4.467 0 011.896 6.201z" fill="#06AF79"/><path d="M302.524 131.29h-41.208c-.759 0-1.264-.632-1.264-1.265 0-.76.632-1.266 1.264-1.266h41.208c.759 0 1.265.633 1.265 1.266.126.633-.506 1.265-1.265 1.265zm-122.621 56.702h-66.617c-.758 0-1.264-.633-1.264-1.266s.632-1.266 1.264-1.266h66.617c.758 0 1.264.633 1.264 1.266s-.632 1.266-1.264 1.266zm470.931-6.75h-66.617c-.758 0-1.264-.633-1.264-1.266s.632-1.266 1.264-1.266h66.617c.758 0 1.264.633 1.264 1.266s-.506 1.266-1.264 1.266zM757.471 320H1.897C.759 320 0 318.84 0 317.679c0-1.392.948-2.321 1.897-2.321H757.47c1.138 0 1.897 1.161 1.897 2.321.19 1.161-.759 2.321-1.897 2.321z" fill="#226357"/><path d="M225.132 316.54c-.759 0-1.265-.633-1.265-1.266V214.149c0-.76.633-1.266 1.265-1.266.758 0 1.264.633 1.264 1.266v101.125c0 .633-.506 1.266-1.264 1.266zm23.385 0c-.759 0-1.264-.633-1.264-1.266V214.149c0-.76.632-1.266 1.264-1.266s1.264.633 1.264 1.266v101.125c.126.633-.506 1.266-1.264 1.266z" fill="#226357"/><path d="M248.517 222.375h-23.385c-.759 0-1.265-.632-1.265-1.265 0-.76.633-1.266 1.265-1.266h23.511c.759 0 1.264.633 1.264 1.266s-.632 1.265-1.39 1.265zm0 11.518h-23.385c-.759 0-1.265-.633-1.265-1.266 0-.759.633-1.265 1.265-1.265h23.511c.759 0 1.264.632 1.264 1.265 0 .633-.632 1.266-1.39 1.266zm0 11.517h-23.385c-.759 0-1.265-.633-1.265-1.265 0-.76.633-1.266 1.265-1.266h23.511c.759 0 1.264.633 1.264 1.266 0 .759-.632 1.265-1.39 1.265zm0 11.644h-23.385c-.759 0-1.265-.632-1.265-1.265 0-.76.633-1.266 1.265-1.266h23.511c.759 0 1.264.633 1.264 1.266s-.632 1.265-1.39 1.265zm0 11.518h-23.385c-.759 0-1.265-.633-1.265-1.266 0-.759.633-1.266 1.265-1.266h23.511c.759 0 1.264.633 1.264 1.266s-.632 1.266-1.39 1.266zm0 11.517h-23.385c-.759 0-1.265-.633-1.265-1.265 0-.633.633-1.266 1.265-1.266h23.511c.759 0 1.264.633 1.264 1.266 0 .632-.632 1.265-1.39 1.265zm0 11.518h-23.385c-.759 0-1.265-.633-1.265-1.266 0-.759.633-1.266 1.265-1.266h23.511c.759 0 1.264.633 1.264 1.266 0 .759-.632 1.266-1.39 1.266zm0 11.517h-23.385c-.759 0-1.265-.633-1.265-1.265 0-.76.633-1.266 1.265-1.266h23.511c.759 0 1.264.633 1.264 1.266 0 .759-.632 1.265-1.39 1.265z" fill="#226357"/><path d="M297.979 111.029c7.101-7.124 7.101-18.676 0-25.8-7.102-7.125-18.615-7.125-25.717 0-7.101 7.124-7.101 18.676 0 25.8 7.102 7.125 18.615 7.125 25.717 0z" fill="#06AF79"/><path d="M285.128 111.757c7.539 0 13.652-6.12 13.652-13.669s-6.113-13.669-13.652-13.669c-7.54 0-13.652 6.12-13.652 13.67 0 7.548 6.112 13.668 13.652 13.668z" fill="#fff"/><path d="M285.128 112.263c-7.838 0-14.158-6.328-14.158-14.175s6.32-14.175 14.158-14.175c7.837 0 14.157 6.328 14.157 14.175.127 7.847-6.32 14.175-14.157 14.175zm0-27.338c-7.206 0-13.147 5.949-13.147 13.163s5.941 13.163 13.147 13.163c7.205 0 13.146-5.949 13.146-13.163s-5.815-13.163-13.146-13.163z" fill="#226357"/><path d="M285.128 98.594c-.253 0-.506-.253-.506-.506v-6.96c0-.254.253-.507.506-.507.252 0 .505.253.505.506v6.961c.127.253-.126.506-.505.506z" fill="#226357"/><path d="M293.344 98.594h-8.09c-.253 0-.506-.253-.506-.506s.253-.506.506-.506h8.09c.253 0 .506.253.506.506s-.253.507-.506.507zm-7.584-12.656c0 .253-.253.506-.506.506s-.506-.253-.506-.506.253-.506.506-.506.506.253.506.506zm7.963 4.05a.506.506 0 100-1.012.506.506 0 000 1.012zm3.54 8.606c-.253 0-.506-.253-.506-.506s.253-.506.506-.506.505.253.505.506-.126.507-.505.507zm-3.54 8.607a.506.506 0 100-1.012.506.506 0 000 1.012zm-9.101 3.037c0-.253.253-.506.506-.506.252 0 .505.253.505.506 0 .254-.253.507-.505.507-.253 0-.506-.253-.506-.507zm-8.343-3.923c.253-.253.506-.253.759 0 .252.253.252.506 0 .759-.253.253-.506.253-.759 0s-.253-.633 0-.759zm-3.16-7.721a.506.506 0 100-1.012.506.506 0 000 1.013zm3.919-9.492c.252.253.252.506 0 .76-.253.253-.506.253-.759 0-.253-.254-.253-.507 0-.76.127-.127.506-.127.759 0zm34.762 2.025h-7.585c-.253 0-.505-.253-.505-.506s.252-.506.505-.506h7.585c.252 0 .505.253.505.506s-.126.506-.505.506zm0 14.935h-7.585c-.253 0-.505-.253-.505-.506 0-.254.252-.507.505-.507h7.585c.252 0 .505.253.505.507 0 .253-.126.506-.505.506zm9.48-7.468h-14.284c-.253 0-.506-.253-.506-.506s.253-.506.506-.506h14.284c.253 0 .506.253.506.506.126.253-.127.507-.506.507z" fill="#226357"/><path d="M165.378 245.41c-.379-2.404-2.023-8.606-5.815-6.581-6.067 3.164 1.264 15.188-6.067 17.339-.38-4.809-1.391-8.1-3.54-7.847-4.424.38-3.286 10.758-3.413 13.163-.126 2.278-.126 4.683-.253 7.088-5.309.886-4.171-12.783-7.458-14.682-4.929-2.911-6.067 3.671-5.941 6.708.253 5.189 1.644 11.391 6.447 14.049 1.643.886 4.424 1.898 6.573 1.772 0 4.176.127 8.227.885 12.15h.127l2.907.127c0 1.265 2.022 1.265 2.022 0 0-2.532 1.517-14.682 1.77-25.06 2.402.379 5.309-.76 6.953-2.025 5.182-3.671 5.688-10.505 4.803-16.201z" fill="#6CDD6C"/><path d="M150.968 290.214c-.253 0-.632-.126-.885-.253-.252-.253-.505-.506-.632-.886l-2.149-.126h-.758l-.126-.506c-.632-3.291-.885-7.088-.885-11.644-2.402 0-5.057-1.14-6.321-1.899-5.182-2.911-6.573-9.492-6.699-14.555-.127-2.025.379-6.202 2.654-7.594 1.138-.633 2.529-.506 4.172.38 1.517.886 2.149 3.67 2.781 6.961.885 4.43 1.769 7.594 3.792 7.594v-1.139c.126-1.899.126-3.671.253-5.569v-1.519c-.127-4.05-.379-11.771 3.918-12.15.632-.127 1.265.126 1.77.633 1.138 1.012 2.023 3.29 2.275 7.087 2.655-1.265 2.529-4.303 2.402-7.973-.126-3.671-.379-7.468 2.908-9.113 1.011-.506 2.022-.633 2.907-.127 2.655 1.393 3.539 6.582 3.666 7.215.758 4.429 1.011 12.403-4.93 16.706-1.643 1.266-4.424 2.278-6.826 2.152-.127 6.834-.885 14.175-1.264 19.238-.253 2.531-.379 4.43-.379 5.316 0 .632-.253 1.012-.759 1.265-.379.506-.632.506-.885.506zm-3.539-2.278l3.16.127v.506c0 .253.126.38.126.38.127.126.38.126.506 0 .127-.127.253-.127.253-.38 0-.886.126-2.784.379-5.316.506-5.062 1.138-12.909 1.264-19.744v-.633l.632.127c2.149.38 5.057-.759 6.573-1.899 5.436-4.05 5.183-11.517 4.425-15.567-.253-1.772-1.264-5.442-3.034-6.328-.632-.254-1.264-.254-1.896.126-2.528 1.392-2.402 4.557-2.276 8.1.127 3.797.38 8.101-3.918 9.366l-.632.253v-.632c-.379-4.81-1.264-6.455-2.023-7.088-.253-.253-.632-.38-1.011-.38-3.287.253-3.034 7.467-2.907 11.011v1.646c0 1.772-.127 3.67-.253 5.569l-.127 2.025-.379.126c-3.539.633-4.55-4.176-5.562-8.48-.632-2.784-1.137-5.569-2.275-6.201-1.264-.76-2.275-.886-3.034-.38-1.643 1.012-2.149 4.556-2.022 6.581.252 4.683 1.517 11.011 6.194 13.669 1.643.886 4.297 1.772 6.32 1.646h.632v.633c.126 4.176.253 7.847.885 11.137z" fill="#50AA50"/><path d="M159.564 316.413h-21.363c-1.137 0-2.022-.759-2.275-1.898l-4.804-24.933 2.023-.38 4.803 24.933c0 .253.253.253.253.253h21.363s.253 0 .253-.253l4.803-24.933 2.023.38-4.804 24.933c-.126 1.139-1.137 1.898-2.275 1.898z" fill="#226357"/><path d="M131.375 281.608h35.394c.632 0 1.138.633 1.138 1.519v5.442c0 .759-.506 1.519-1.138 1.519h-35.394c-.632 0-1.137-.633-1.137-1.519v-5.442c0-.886.505-1.519 1.137-1.519z" fill="#B6D0FB"/><path d="M166.768 290.468h-35.394c-.885 0-1.643-.886-1.643-2.025V283c0-1.139.758-2.025 1.643-2.025h35.394c.885 0 1.644.886 1.644 2.025v5.443c0 1.139-.759 2.025-1.644 2.025zm-35.394-8.354c-.253 0-.505.38-.505.886v5.443c0 .506.252.886.505.886h35.394c.253 0 .506-.38.506-.886V283c0-.506-.253-.886-.506-.886h-35.394z" fill="#405B91"/><path d="M166.769 290.468h-35.394c-.885 0-1.517-.886-1.517-1.899v-5.442c0-1.139.759-1.899 1.517-1.899h35.394c.885 0 1.517.886 1.517 1.899v5.442c.127 1.013-.632 1.899-1.517 1.899zm-35.394-8.354c-.253 0-.632.38-.632 1.013v5.442c0 .633.379 1.013.632 1.013h35.394c.253 0 .632-.38.632-1.013v-5.442c0-.633-.379-1.013-.632-1.013h-35.394z" fill="#85A93F"/><path d="M166.769 290.974h-35.394c-1.137 0-2.149-1.139-2.149-2.531V283c0-1.392 1.012-2.531 2.149-2.531h35.394c1.138 0 2.149 1.139 2.149 2.531v5.443c0 1.392-1.011 2.531-2.149 2.531zm-35.394-8.353s-.126.253-.126.506v5.442c0 .253.126.506.126.506h35.394s.127-.126.127-.506v-5.442c0-.253-.127-.506-.127-.506h-35.394z" fill="#226357"/><path d="M135.294 260.472c.632.126 1.137.126 1.77.253.632.126.632-.886 0-1.013-.633-.126-1.138-.126-1.77-.253-.632-.127-.632.886 0 1.013zm2.528-7.721v.886c0 .633 1.011.633 1.011 0v-.886c0-.633-1.011-.633-1.011 0zm3.413 8.986c.379-.253.885-.506 1.264-.759.506-.253 0-1.139-.506-.886-.379.253-.884.506-1.264.759-.632.38-.126 1.139.506.886zm-5.056 11.265l1.517-1.14c.505-.379 0-1.265-.506-.885l-1.517 1.139c-.506.379 0 1.265.506.886zm-3.666-8.48l1.138.379c.632.254.884-.759.252-1.012l-1.137-.38c-.632-.126-.885.886-.253 1.013zm7.079 4.683c.252 0 .379.126.505.253.38.506 1.138-.253.632-.76-.252-.379-.758-.506-1.264-.632-.505 0-.505 1.012.127 1.139zm2.149 4.556c-.127.633 0 1.266.252 1.898.253.633 1.138.127.885-.506-.126-.38-.253-.759-.126-1.139 0-.633-.885-.886-1.011-.253zm5.182.253c.253.127.632.127.885.253.632.127.885-.759.253-1.012-.253-.127-.632-.127-.885-.253-.632-.127-.885.759-.253 1.012zm3.16-9.745c0 .506.127 1.012.633 1.392.505.379 1.137-.253.758-.76-.253-.253-.379-.379-.253-.759-.126-.506-1.138-.506-1.138.127zm-1.264-6.962c-.252.38-.379.76-.252 1.266.126.633 1.011.38 1.011-.253 0-.253 0-.38.126-.506.253-.633-.505-1.013-.885-.507zm5.31 2.785v.886c0 .633 1.011.633 1.011 0v-.886c0-.633-1.011-.633-1.011 0zm-9.102-1.519c.253.127.379.253.632.38.506.38 1.011-.506.506-.886-.253-.127-.379-.253-.632-.38-.506-.253-1.011.506-.506.886zm1.643-8.1c.253.253.253.506.253.759 0 .633 1.012.633 1.012 0 0-.506-.253-1.012-.632-1.392-.38-.633-1.012.127-.633.633zm2.529-3.038v1.266c0 .633 1.011.633 1.011 0v-1.266c0-.632-1.011-.632-1.011 0zm6.067 5.822c.127.127.253.253.379.507.38.506 1.138-.254.632-.76a1.757 1.757 0 01-.379-.506c-.379-.38-1.137.253-.632.759zm1.011-5.948c.38 0 .885 0 1.264.126.633 0 .633-.886 0-1.012-.379 0-.884 0-1.264-.127-.632 0-.632 1.013 0 1.013zm1.391-7.847l.885.886c.505.506 1.137-.253.632-.76l-.885-.886c-.379-.379-1.138.38-.632.76zm3.792-2.532v1.519c0 .633 1.011.633 1.011 0v-1.519c-.126-.632-1.011-.632-1.011 0zm1.77 9.24c.126-.253.253-.38.379-.633.379-.506-.506-1.013-.885-.506-.126.253-.253.379-.379.632-.379.507.506 1.013.885.507zm-3.413 9.619l1.138-.38c.632-.253.379-1.139-.253-1.013l-1.138.38c-.506.38-.253 1.266.253 1.013zm4.424-1.393c.379-.126.759-.126 1.138-.253.632-.126.379-1.139-.253-1.012-.379.126-.758.126-1.138.253-.632.253-.379 1.139.253 1.012zm-2.781 4.683v.253c0 .633 1.011.633 1.011 0v-.253c-.126-.632-1.011-.632-1.011 0zm-8.469 15.062c.253-.127.379-.253.632-.38.505-.38 0-1.266-.506-.886-.253.127-.379.253-.632.38-.505.379 0 1.265.506.886zm-.632 3.543c.379-.379.758-.632 1.39-.759.632-.126.38-1.139-.253-1.012-.632.126-1.264.506-1.769 1.012-.506.506.253 1.266.632.759zm-4.045.633c.126.127.126.253.253.38.252.506 1.137.127.884-.506-.126-.127-.126-.253-.252-.38-.253-.506-1.138 0-.885.506zm-3.666 1.013c.506.253 1.138.38 1.643.253.632-.127.38-1.013-.253-1.013-.379.127-.632 0-.884-.126-.632-.253-1.138.633-.506.886zm8.09-9.239c.632-.127 1.264-.127 2.023-.254.632-.126.632-1.012 0-1.012-.632.126-1.265.126-2.023.253-.632.127-.632 1.013 0 1.013z" fill="#50AA50"/><path d="M277.843 226.932c10.619-9.619 21.11-19.112 31.729-28.731 1.517-1.392-.759-3.797-2.276-2.278-10.618 9.619-21.11 19.112-31.728 28.731-1.517 1.392.759 3.67 2.275 2.278zm35.9 14.681c10.618-9.619 21.11-19.111 31.728-28.73 1.517-1.392-.758-3.797-2.275-2.278-10.618 9.619-21.11 19.111-31.728 28.73-1.517 1.392.758 3.671 2.275 2.278zm-38.933 10.758c22.121-21.642 44.369-43.285 66.49-64.928 1.517-1.518-.759-3.797-2.275-2.278-22.122 21.643-44.369 43.286-66.491 64.928-1.517 1.519.759 3.797 2.276 2.278z" fill="#D7E7FF"/><path d="M403.442 50.373h-1.391v91.633h1.391V50.373z" fill="#226357"/><path d="M408.625 142.133c0 3.164-2.655 5.822-5.815 5.822-3.16 0-5.815-2.658-5.815-5.822s2.655-5.822 5.815-5.822a5.803 5.803 0 015.815 5.822z" fill="#226357"/><path d="M402.81 161.624c-.127 0-2.023 0-3.413-1.392-.885-.886-1.391-2.152-1.391-3.797 0-.38.379-.76.759-.76.379 0 .758.38.758.76 0 1.139.379 2.151.885 2.784.885.886 2.275 1.013 2.275 1.013 2.149 0 3.919-1.772 3.919-3.924 0-2.151-1.77-3.923-3.919-3.923-.379 0-.758-.38-.758-.76v-4.303c0-.38.379-.759.758-.759.38 0 .759.379.759.759v3.544c2.654.38 4.677 2.658 4.677 5.442.253 2.911-2.275 5.316-5.309 5.316z" fill="#226357"/><path d="M372.346 165.168c-.253 0-.506-.253-.632-.633 0-.38.252-.759.632-.759l31.475-4.683c.379 0 .758.253.758.633 0 .379-.252.759-.632.759l-31.475 4.683h-.126z" fill="#226357"/><path d="M432.768 175.673c-.126 0-.126 0-.253-.127l-28.947-15.061c-.379-.127-.505-.633-.253-1.013.127-.379.632-.506 1.012-.253l28.947 15.062c.379.126.506.632.253 1.012-.253.253-.506.506-.759.38z" fill="#226357"/><path d="M430.367 236.171l-77.109-13.416a7.534 7.534 0 01-6.067-8.606l7.71-44.425a7.528 7.528 0 018.596-6.075l77.109 13.416a7.535 7.535 0 016.067 8.606l-7.711 44.425a7.527 7.527 0 01-8.595 6.075z" fill="#fff"/><path d="M431.378 237.184c-.506 0-1.011 0-1.517-.127l-76.477-13.289c-2.275-.38-4.297-1.646-5.561-3.544-1.391-1.899-1.897-4.177-1.391-6.455l7.585-43.918c.758-4.683 5.309-7.847 9.986-7.088l76.476 13.289c2.276.38 4.298 1.646 5.562 3.544 1.391 1.899 1.896 4.177 1.517 6.455l-7.584 43.918c-.759 4.304-4.425 7.215-8.596 7.215zm-68.892-72.522c-3.16 0-6.068 2.278-6.573 5.568l-7.585 43.919a7.204 7.204 0 001.138 5.062c1.011 1.519 2.528 2.405 4.298 2.785l76.476 13.289a6.627 6.627 0 007.711-5.442l7.584-43.918a7.206 7.206 0 00-1.137-5.063c-1.011-1.519-2.528-2.405-4.298-2.784l-76.477-13.29c-.379-.126-.758-.126-1.137-.126z" fill="#226357"/><path d="M429.735 231.362l-74.328-12.91c-2.528-.506-4.298-2.911-3.919-5.442l7.079-40.501c.506-2.532 2.908-4.304 5.436-3.924l74.327 12.91c2.528.506 4.298 2.911 3.919 5.442l-7.079 40.501c-.379 2.658-2.781 4.303-5.435 3.924z" fill="#D5F2EA"/><path d="M430.493 232.374c-.379 0-.632 0-1.011-.126l-73.949-12.91a5.856 5.856 0 01-3.792-2.405 6.122 6.122 0 01-1.011-4.43l6.952-40.247c.506-3.165 3.666-5.316 6.826-4.81l73.949 12.91c3.16.506 5.309 3.67 4.803 6.834l-6.952 40.248a5.865 5.865 0 01-2.402 3.797 5.816 5.816 0 01-3.413 1.139zm-.758-2.025c1.011.127 2.022 0 2.907-.633.885-.633 1.39-1.519 1.643-2.531l6.953-40.248c.379-2.152-1.012-4.177-3.161-4.556l-73.948-12.91c-2.149-.38-4.171 1.013-4.551 3.164l-6.952 40.248c-.126 1.013 0 2.025.632 2.911.632.886 1.517 1.392 2.528 1.645l73.949 12.91z" fill="#226357"/><path d="M374.839 200.873c1.036-3.408-1.289-7.144-5.185-8.329-1.914-.582-3.164-2.285-2.727-3.722.437-1.438 2.423-2.157 4.338-1.575.96.292 1.767.861 2.269 1.608a1.847 1.847 0 002.561.501 1.84 1.84 0 00.5-2.561c-.639-.954-1.529-1.734-2.558-2.321l.604-1.988a1.846 1.846 0 10-3.532-1.074l-.603 1.985c-3.248-.231-6.237 1.48-7.11 4.351-1.037 3.408 1.289 7.144 5.184 8.328 1.914.582 3.164 2.286 2.727 3.723-.437 1.437-2.423 2.157-4.337 1.575-.961-.292-1.768-.861-2.27-1.608a1.842 1.842 0 00-2.56-.501 1.843 1.843 0 00-.502 2.564c.641.951 1.53 1.731 2.559 2.318l-.604 1.988a1.847 1.847 0 003.532 1.074l.603-1.985c3.248.231 6.238-1.48 7.111-4.351z" fill="#4CAF50"/><path d="M424.257 208.115l-34.779-5.849a2.52 2.52 0 01-2.067-2.902 2.52 2.52 0 012.902-2.067l34.78 5.85a2.52 2.52 0 01-.836 4.968zm2.569-9.98l-34.779-5.849a2.52 2.52 0 01.835-4.969l34.78 5.85a2.519 2.519 0 01-.836 4.968zm-4.24 19.917l-34.78-5.849a2.52 2.52 0 01.836-4.969l34.78 5.85a2.52 2.52 0 01-.836 4.968zm39.13-170.716h-71.421v7.846h71.421v-7.846z" fill="#226357"/><path d="M523.782 210.097h-23.765V.125h23.765v209.972zm-21.363-2.405h19.087V2.403h-19.087v205.289z" fill="#06AF79"/><path d="M523.528 23.162h-23.133V0h23.133v23.162zm-20.731-2.405h18.329V2.405h-18.329v18.352z" fill="#06AF79"/><path d="M502.394.3l-1.696 1.702 20.716 20.784 1.696-1.703L502.394.3z" fill="#06AF79"/><path d="M521.414.371l-20.715 20.784 1.696 1.702 20.716-20.784-1.697-1.702z" fill="#06AF79"/><path d="M523.528 43.918h-23.133V20.757h23.133v23.161zm-20.731-2.404h18.329V23.16h-18.329v18.352z" fill="#06AF79"/><path d="M502.472 21.152l-1.697 1.702 20.716 20.784 1.697-1.702-20.716-20.784z" fill="#06AF79"/><path d="M521.402 21.133l-20.716 20.784 1.696 1.702 20.716-20.784-1.696-1.702z" fill="#06AF79"/><path d="M523.528 64.675h-23.133V41.514h23.133v23.16zm-20.731-2.405h18.329V43.918h-18.329V62.27z" fill="#06AF79"/><path d="M502.457 41.912l-1.696 1.702 20.716 20.784 1.696-1.702-20.716-20.784z" fill="#06AF79"/><path d="M521.398 41.907L500.682 62.69l1.696 1.702 20.716-20.783-1.696-1.702z" fill="#06AF79"/><path d="M523.528 85.432h-23.133V62.27h23.133v23.162zm-20.731-2.279h18.329V64.675h-18.329v18.478z" fill="#06AF79"/><path d="M502.445 62.675l-1.697 1.702 20.716 20.784 1.697-1.703-20.716-20.783z" fill="#06AF79"/><path d="M521.376 62.657L500.66 83.44l1.696 1.702 20.716-20.783-1.696-1.702z" fill="#06AF79"/><path d="M523.528 106.315h-23.133V83.153h23.133v23.162zm-20.731-2.405h18.329V85.432h-18.329v18.478z" fill="#06AF79"/><path d="M502.433 83.438l-1.697 1.702 20.716 20.783 1.697-1.702-20.716-20.783z" fill="#06AF79"/><path d="M521.46 83.52l-20.716 20.784 1.697 1.703 20.716-20.784-1.697-1.702z" fill="#06AF79"/><path d="M523.528 127.072h-23.133V103.91h23.133v23.162zm-20.731-2.405h18.329v-18.352h-18.329v18.352z" fill="#06AF79"/><path d="M502.419 104.198l-1.697 1.702 20.716 20.783 1.697-1.702-20.716-20.783z" fill="#06AF79"/><path d="M521.447 104.283l-20.716 20.784 1.696 1.702 20.716-20.783-1.696-1.703z" fill="#06AF79"/><path d="M523.528 147.828h-23.133v-23.161h23.133v23.161zm-20.731-2.404h18.329v-18.352h-18.329v18.352z" fill="#06AF79"/><path d="M502.407 124.962l-1.697 1.702 20.716 20.783 1.697-1.702-20.716-20.783z" fill="#06AF79"/><path d="M521.433 125.046l-20.716 20.783 1.697 1.702 20.716-20.783-1.697-1.702z" fill="#06AF79"/><path d="M523.528 168.585h-23.133v-23.161h23.133v23.161zm-20.731-2.405h18.329v-18.352h-18.329v18.352z" fill="#06AF79"/><path d="M502.394 145.722l-1.697 1.702 20.716 20.784 1.697-1.702-20.716-20.784z" fill="#06AF79"/><path d="M521.42 145.808l-20.716 20.784 1.696 1.702 20.716-20.784-1.696-1.702z" fill="#06AF79"/><path d="M523.528 189.342h-23.133V166.18h23.133v23.162zm-20.731-2.405h18.329v-18.352h-18.329v18.352z" fill="#06AF79"/><path d="M502.471 166.575l-1.697 1.702 20.716 20.783 1.697-1.702-20.716-20.783z" fill="#06AF79"/><path d="M521.406 166.571l-20.716 20.783 1.697 1.702 20.716-20.783-1.697-1.702z" fill="#06AF79"/><path d="M523.528 210.099h-23.133v-23.162h23.133v23.162zm-20.731-2.405h18.329v-18.352h-18.329v18.352z" fill="#06AF79"/><path d="M502.457 187.333l-1.697 1.702 20.716 20.784 1.697-1.703-20.716-20.783z" fill="#06AF79"/><path d="M521.383 187.3l-20.719 20.78 1.697 1.703 20.719-20.781-1.697-1.702zm43.481-143.635h-23.132V20.504h23.132v23.161zm-20.857-2.405h18.329V22.782h-18.329V41.26z" fill="#06AF79"/><path d="M562.775 20.842l-20.713 20.786 1.697 1.702 20.713-20.786-1.697-1.702z" fill="#06AF79"/><path d="M543.744 20.757l-1.697 1.702 20.716 20.783 1.697-1.702-20.716-20.783z" fill="#06AF79"/><path d="M544.007 43.665h-23.133V20.504h23.133v23.161zm-20.731-2.405h18.329V22.782h-18.329V41.26z" fill="#06AF79"/><path d="M542.038 20.828l-20.713 20.787 1.697 1.701 20.713-20.786-1.697-1.702z" fill="#06AF79"/><path d="M523.007 20.743l-1.697 1.702 20.716 20.783 1.697-1.702-20.716-20.783z" fill="#06AF79"/><path d="M523.276 43.665h-23.133V20.504h23.133v23.161zm-20.731-2.405h18.329V22.782h-18.329V41.26z" fill="#06AF79"/><path d="M502.545 43.665h-23.132V20.504h23.132v23.161zm-20.731-2.405h18.329V22.782h-18.329V41.26z" fill="#06AF79"/><path d="M500.556 20.79L479.84 41.572l1.696 1.702 20.716-20.784-1.696-1.702z" fill="#06AF79"/><path d="M481.446 20.807l-1.697 1.702 20.716 20.783 1.697-1.702-20.716-20.783z" fill="#06AF79"/><path d="M481.814 43.665h-23.132V20.504h23.132v23.161zm-20.73-2.405h18.329V22.782h-18.329V41.26z" fill="#06AF79"/><path d="M479.73 20.865l-20.716 20.783 1.697 1.702 20.716-20.783-1.697-1.702z" fill="#06AF79"/><path d="M460.712 20.796l-1.697 1.702 20.716 20.784 1.697-1.702-20.716-20.784z" fill="#06AF79"/><path d="M461.084 43.665h-23.133V20.504h23.133v23.161zm-20.731-2.405h18.329V22.782h-18.329V41.26z" fill="#06AF79"/><path d="M439.089 43.665h-20.731c-.506 0-.885-.253-1.138-.76-.126-.506-.126-1.012.253-1.265l20.731-20.757 1.643 1.646-18.708 18.731h17.444l20.352-20.377 1.643 1.646-20.731 20.756c-.126.254-.379.38-.758.38z" fill="#06AF79"/><path d="M439.975 20.78l-1.697 1.703 20.716 20.784 1.697-1.703-20.716-20.783zm83.933 212.48h-23.765v-23.161h23.765v23.161zm-21.363-2.405h18.835v-18.352h-18.835v18.352z" fill="#06AF79"/><path d="M521.759 232.88l-21.363-20.756 1.769-1.646 21.363 20.757-1.769 1.645z" fill="#06AF79"/><path d="M502.165 232.88l-1.769-1.645 21.363-20.757 1.769 1.646-21.363 20.756zm21.743 83.533h-23.765v-23.161h23.765v23.161zm-21.363-2.404h18.835v-18.352h-18.835v18.352z" fill="#06AF79"/><path d="M521.759 316.034l-21.363-20.757 1.769-1.772 21.363 20.757-1.769 1.772z" fill="#06AF79"/><path d="M502.165 316.034l-1.769-1.772 21.363-20.757 1.769 1.772-21.363 20.757zm21.743-63.916h-23.765v-23.161h23.765v23.161zm-21.363-2.404h18.835v-18.352h-18.835v18.352z" fill="#06AF79"/><path d="M521.759 251.739l-21.363-20.757 1.769-1.772 21.363 20.883-1.769 1.646z" fill="#06AF79"/><path d="M502.165 251.739l-1.769-1.646 21.363-20.883 1.769 1.772-21.363 20.757z" fill="#06AF79"/><path d="M523.908 272.875h-23.765v-23.161h23.765v23.161zm-21.363-2.405h18.835v-18.352h-18.835v18.352z" fill="#06AF79"/><path d="M521.759 272.495l-21.363-20.756 1.769-1.646 21.363 20.757-1.769 1.645z" fill="#06AF79"/><path d="M502.165 272.495l-1.769-1.645 21.363-20.757 1.769 1.646-21.363 20.756z" fill="#06AF79"/><path d="M523.908 293.632h-23.765V270.47h23.765v23.162zm-21.363-2.405h18.835v-18.352h-18.835v18.352z" fill="#06AF79"/><path d="M521.759 293.252l-21.363-20.757 1.769-1.645 21.363 20.757-1.769 1.645z" fill="#06AF79"/><path d="M502.165 293.252l-1.769-1.645 21.363-20.757 1.769 1.645-21.363 20.757z" fill="#06AF79"/><path d="M150.576 168.248c2.529 0 2.529-3.924 0-3.924-2.528-.126-2.528 3.924 0 3.924zm311.127-83.323c2.528 0 2.528-3.923 0-3.923-2.528-.127-2.528 3.923 0 3.923zm142.234 140.868h.884c1.012 0 2.023-.886 2.023-2.025 0-1.013-.885-2.025-2.023-2.025h-.884c-1.012 0-2.023.886-2.023 2.025.126 1.139 1.011 2.025 2.023 2.025zM96.462 254.65c2.528 0 2.528-3.924 0-3.924-2.529 0-2.529 3.924 0 3.924zM307.085 65.56c2.528 0 2.528-3.923 0-3.923s-2.528 3.924 0 3.924z" fill="#226357"/></svg>